<svg width="2704" height="415" viewBox="0 0 2704 415" fill="none" xmlns="http://www.w3.org/2000/svg">
<path d="M160.551 9.02734H167.551V2.02734H160.551V9.02734ZM160.551 20.1602L160.642 27.1596L167.551 27.0698V20.1602H160.551ZM129.789 23.0898L127.647 16.4256L127.632 16.4306L127.616 16.4356L129.789 23.0898ZM120.414 62.6406L113.866 65.1144L113.89 65.1776L113.915 65.2404L120.414 62.6406ZM139.75 106.879L146.136 104.013L146.132 104.002L146.127 103.991L139.75 106.879ZM233.5 315.766L227.114 318.632L234.063 334.117L240.05 318.235L233.5 315.766ZM318.754 89.5938L325.304 92.0628L325.309 92.0502L325.313 92.0375L318.754 89.5938ZM315.238 24.2617L317.904 17.789L317.871 17.7755L317.838 17.7624L315.238 24.2617ZM286.234 20.1602H279.234V26.9602L286.032 27.1572L286.234 20.1602ZM286.234 9.02734V2.02734H279.234V9.02734H286.234ZM408.988 9.02734H415.988V2.02734H408.988V9.02734ZM408.988 19.2812L409.948 26.2151L415.988 25.3788V19.2812H408.988ZM380.863 29.5352L385.333 34.9221L385.347 34.9103L385.362 34.8985L380.863 29.5352ZM353.617 75.5312L360.132 78.0929L360.135 78.0833L360.139 78.0737L353.617 75.5312ZM220.902 413.031V420.031H225.671L227.417 415.593L220.902 413.031ZM211.82 413.031L205.433 415.896L207.288 420.031H211.82V413.031ZM63.8711 83.1484L57.4818 86.008L57.484 86.013L63.8711 83.1484ZM33.6953 31L28.953 36.1488L28.9863 36.1795L29.0199 36.2097L33.6953 31ZM0.882812 19.2812H-6.11719V25.8242L0.410915 26.2653L0.882812 19.2812ZM0.882812 9.02734V2.02734H-6.11719V9.02734H0.882812ZM153.551 9.02734V20.1602H167.551V9.02734H153.551ZM160.46 13.1608C145.498 13.3551 134.246 14.3044 127.647 16.4256L131.931 29.754C136.269 28.3597 145.526 27.3559 160.642 27.1596L160.46 13.1608ZM127.616 16.4356C121.833 18.324 116.893 21.3911 113.433 25.9806C109.95 30.6006 108.434 36.1459 108.434 42.1328H122.434C122.434 38.5494 123.31 36.1357 124.612 34.4081C125.938 32.6499 128.175 30.9807 131.962 29.7441L127.616 16.4356ZM108.434 42.1328C108.434 48.321 110.47 56.1268 113.866 65.1144L126.962 60.1668C123.717 51.5763 122.434 45.7102 122.434 42.1328H108.434ZM113.915 65.2404C117.494 74.1896 123.998 89.0627 133.373 109.766L146.127 103.991C136.752 83.2888 130.365 68.6697 126.913 60.0409L113.915 65.2404ZM133.364 109.745L227.114 318.632L239.886 312.899L146.136 104.013L133.364 109.745ZM240.05 318.235L325.304 92.0628L312.204 87.1247L226.95 313.297L240.05 318.235ZM325.313 92.0375C329.06 81.9801 331.959 73.3961 333.981 66.3215L320.519 62.4754C318.634 69.0727 315.869 77.2855 312.194 87.15L325.313 92.0375ZM333.981 66.3215C336.012 59.2115 337.18 52.9317 337.18 47.6992H323.18C323.18 51.0605 322.394 55.9135 320.519 62.4754L333.981 66.3215ZM337.18 47.6992C337.18 40.9289 335.71 34.7103 332.347 29.4344C328.962 24.1242 323.993 20.2964 317.904 17.789L312.573 30.7345C316.445 32.3286 318.946 34.4578 320.542 36.9602C322.159 39.4967 323.18 42.9461 323.18 47.6992H337.18ZM317.838 17.7624C310.752 14.9281 300.017 13.5567 286.437 13.1631L286.032 27.1572C299.405 27.5448 308.006 28.9079 312.639 30.7611L317.838 17.7624ZM293.234 20.1602V9.02734H279.234V20.1602H293.234ZM286.234 16.0273H408.988V2.02734H286.234V16.0273ZM401.988 9.02734V19.2812H415.988V9.02734H401.988ZM408.028 12.3474C394.762 14.1843 383.875 17.8734 376.365 24.1718L385.362 34.8985C389.961 31.0406 397.824 27.8938 409.948 26.2151L408.028 12.3474ZM376.393 24.1482C365.748 32.9817 356.141 49.7846 347.095 72.9888L360.139 78.0737C369.062 55.1841 377.619 41.323 385.333 34.9221L376.393 24.1482ZM347.103 72.9696L214.388 410.47L227.417 415.593L360.132 78.0929L347.103 72.9696ZM220.902 406.031H211.82V420.031H220.902V406.031ZM218.207 410.167L70.2581 80.2839L57.484 86.013L205.433 415.896L218.207 410.167ZM70.2604 80.2889C63.9569 66.2045 58.2067 54.6373 53.0109 45.6582C47.8962 36.8192 43.0305 29.9722 38.3707 25.7903L29.0199 36.2097C31.9773 38.8638 35.9495 44.1262 40.8934 52.67C45.7562 61.0737 51.2853 72.1627 57.4818 86.008L70.2604 80.2889ZM38.4376 25.8512C29.4265 17.5514 16.7231 13.3356 1.35471 12.2972L0.410915 26.2653C13.9488 27.18 23.1204 30.7767 28.953 36.1488L38.4376 25.8512ZM7.88281 19.2812V9.02734H-6.11719V19.2812H7.88281ZM0.882812 16.0273H160.551V2.02734H0.882812V16.0273ZM431.547 395.16L430.808 388.199L424.547 388.864V395.16H431.547ZM474.32 383.441L478.849 388.779L478.856 388.773L478.863 388.767L474.32 383.441ZM474.613 32.4648L469.59 37.3402L469.627 37.3777L469.664 37.4146L474.613 32.4648ZM431.547 20.1602H424.547V26.6861L431.057 27.143L431.547 20.1602ZM431.547 9.02734V2.02734H424.547V9.02734H431.547ZM750.297 9.02734L757.295 8.86072L757.132 2.02734H750.297V9.02734ZM752.348 95.1602V102.16H759.516L759.346 94.9935L752.348 95.1602ZM737.113 95.1602L730.238 96.4746L731.325 102.16H737.113V95.1602ZM548.441 36.2734L542.797 32.1339L542.771 32.1692L542.745 32.2048L548.441 36.2734ZM545.512 185.98H538.512V192.98H545.512V185.98ZM703.715 128.266V121.266H697.89L696.831 126.993L703.715 128.266ZM717.777 128.266H724.777V121.266H717.777V128.266ZM717.777 267.133V274.133H724.777V267.133H717.777ZM703.715 267.133L696.842 268.461L697.938 274.133H703.715V267.133ZM686.43 221.137L681.286 225.885L681.317 225.918L681.348 225.951L686.43 221.137ZM545.512 209.711V202.711H538.512V209.711H545.512ZM556.645 379.34L554.698 386.064L554.721 386.07L554.744 386.077L556.645 379.34ZM714.262 369.379L717.158 375.751L717.185 375.739L717.211 375.727L714.262 369.379ZM766.41 304.633V297.633H761.89L760.03 301.753L766.41 304.633ZM783.109 304.633L789.869 306.45L792.239 297.633H783.109V304.633ZM755.863 406V413H761.23L762.623 407.817L755.863 406ZM431.547 406H424.547V413H431.547V406ZM432.286 402.121C443.53 400.927 453.018 399.313 460.643 397.224C468.126 395.174 474.468 392.497 478.849 388.779L469.791 378.104C467.728 379.855 463.718 381.865 456.943 383.721C450.31 385.539 441.634 387.05 430.808 388.199L432.286 402.121ZM478.863 388.767C483.854 384.51 486.811 377.825 488.606 370.171C490.437 362.362 491.281 352.564 491.281 340.961H477.281C477.281 352.014 476.465 360.624 474.976 366.975C473.45 373.482 471.428 376.708 469.778 378.116L478.863 388.767ZM491.281 340.961V74.0664H477.281V340.961H491.281ZM491.281 74.0664C491.281 63.1235 490.458 53.7554 488.683 46.1147C486.928 38.5635 484.093 32.0454 479.563 27.5151L469.664 37.4146C471.578 39.3296 473.578 42.9677 475.046 49.2838C476.493 55.5102 477.281 63.7202 477.281 74.0664H491.281ZM479.636 27.5895C475.189 23.0073 468.642 19.8793 460.936 17.6775C453.122 15.445 443.442 13.9777 432.037 13.1773L431.057 27.143C441.918 27.9052 450.548 29.2698 457.09 31.1389C463.739 33.0386 467.592 35.2818 469.59 37.3402L479.636 27.5895ZM438.547 20.1602V9.02734H424.547V20.1602H438.547ZM431.547 16.0273H750.297V2.02734H431.547V16.0273ZM743.299 9.19397L745.35 95.3268L759.346 94.9935L757.295 8.86072L743.299 9.19397ZM752.348 88.1602H737.113V102.16H752.348V88.1602ZM743.989 93.8457C741.389 80.248 738.088 68.7538 733.991 59.5114C729.915 50.3134 724.866 42.9232 718.53 38.0493L709.994 49.146C713.814 52.0846 717.651 57.1944 721.192 65.1839C724.713 73.129 727.759 83.5098 730.238 96.4746L743.989 93.8457ZM718.53 38.0493C712.092 33.0969 702.532 29.9259 690.842 27.9104C678.973 25.864 664.084 24.8789 646.293 24.8789V38.8789C663.658 38.8789 677.676 39.8469 688.463 41.7068C699.429 43.5976 706.276 46.2859 709.994 49.146L718.53 38.0493ZM646.293 24.8789H564.848V38.8789H646.293V24.8789ZM564.848 24.8789C560.139 24.8789 555.899 25.2634 552.343 26.2159C548.881 27.1433 545.212 28.8401 542.797 32.1339L554.086 40.413C553.819 40.777 553.959 40.2766 555.965 39.7392C557.878 39.2268 560.768 38.8789 564.848 38.8789V24.8789ZM542.745 32.2048C540.923 34.7561 539.937 37.8947 539.361 41.0047C538.769 44.2045 538.512 47.9348 538.512 52.0938H552.512C552.512 48.4402 552.743 45.6276 553.127 43.5539C553.528 41.3904 554.007 40.5252 554.138 40.3421L542.745 32.2048ZM538.512 52.0938V185.98H552.512V52.0938H538.512ZM545.512 192.98H637.797V178.98H545.512V192.98ZM637.797 192.98C650.876 192.98 661.936 192.013 670.81 189.941C679.562 187.897 686.979 184.597 691.866 179.303L681.579 169.807C679.435 172.129 675.182 174.543 667.626 176.307C660.19 178.044 650.303 178.98 637.797 178.98V192.98ZM691.866 179.303C696.265 174.537 699.831 167.813 702.815 159.682C705.828 151.475 708.406 141.395 710.598 129.538L696.831 126.993C694.727 138.379 692.324 147.635 689.673 154.857C686.994 162.156 684.211 166.955 681.579 169.807L691.866 179.303ZM703.715 135.266H717.777V121.266H703.715V135.266ZM710.777 128.266V267.133H724.777V128.266H710.777ZM717.777 260.133H703.715V274.133H717.777V260.133ZM710.588 265.804C708.297 253.951 705.642 243.897 702.577 235.74C699.542 227.664 695.94 220.997 691.511 216.323L681.348 225.951C683.951 228.698 686.745 233.408 689.472 240.665C692.168 247.84 694.641 257.072 696.842 268.461L710.588 265.804ZM691.573 216.389C686.694 211.102 679.311 207.8 670.599 205.753C661.771 203.679 650.781 202.711 637.797 202.711V216.711C650.203 216.711 660.014 217.647 667.397 219.382C674.896 221.144 679.135 223.554 681.286 225.885L691.573 216.389ZM637.797 202.711H545.512V216.711H637.797V202.711ZM538.512 209.711V358.246H552.512V209.711H538.512ZM538.512 358.246C538.512 364.82 539.518 370.822 542.104 375.722C544.818 380.864 549.103 384.444 554.698 386.064L558.591 372.616C556.764 372.087 555.483 371.078 554.486 369.188C553.361 367.057 552.512 363.586 552.512 358.246H538.512ZM554.744 386.077C559.441 387.402 567.772 388.217 578.943 388.749C590.382 389.294 605.521 389.562 624.32 389.562V375.562C605.619 375.562 590.729 375.294 579.609 374.765C568.222 374.223 561.466 373.427 558.545 372.603L554.744 386.077ZM624.32 389.562C665.197 389.562 696.416 385.18 717.158 375.751L711.365 363.006C693.435 371.156 664.694 375.562 624.32 375.562V389.562ZM717.211 375.727C738.862 365.667 757.144 342.173 772.79 307.513L760.03 301.753C744.817 335.452 728.333 355.122 711.312 363.031L717.211 375.727ZM766.41 311.633H783.109V297.633H766.41V311.633ZM776.349 302.816L749.103 404.183L762.623 407.817L789.869 306.45L776.349 302.816ZM755.863 399H431.547V413H755.863V399ZM438.547 406V395.16H424.547V406H438.547ZM798.344 395.16L797.631 388.197L791.344 388.84V395.16H798.344ZM846.098 378.461L851.515 382.894L851.54 382.864L851.564 382.834L846.098 378.461ZM856.645 53.2656H863.645V50.6961L861.982 48.7368L856.645 53.2656ZM848.441 43.5977L853.779 39.0688L853.777 39.067L848.441 43.5977ZM825.883 24.5547L823.176 31.0101L823.299 31.0619L823.425 31.109L825.883 24.5547ZM798.344 20.1602H791.344V26.9415L798.122 27.1566L798.344 20.1602ZM798.344 9.02734V2.02734H791.344V9.02734H798.344ZM901.176 9.02734L906.641 4.65381L904.54 2.02734H901.176V9.02734ZM1132.33 297.895L1126.86 302.268L1139.33 317.846V297.895H1132.33ZM1117.68 32.7578L1122.68 27.8573L1122.65 27.8326L1122.63 27.8081L1117.68 32.7578ZM1074.91 20.1602H1067.91V26.568L1074.29 27.1329L1074.91 20.1602ZM1074.91 9.02734V2.02734H1067.91V9.02734H1074.91ZM1215.82 9.02734H1222.82V2.02734H1215.82V9.02734ZM1215.82 20.1602L1216.54 27.1236L1222.82 26.4789V20.1602H1215.82ZM1158.7 413.031V420.031H1165.7V413.031H1158.7ZM1148.44 413.031L1142.99 417.427L1145.09 420.031H1148.44V413.031ZM883.012 84.0273L888.46 79.632L876.012 64.2025V84.0273H883.012ZM897.367 381.977L892.319 386.826L892.331 386.838L892.342 386.85L897.367 381.977ZM939.262 395.16H946.262V388.876L940.014 388.201L939.262 395.16ZM939.262 406V413H946.262V406H939.262ZM798.344 406H791.344V413H798.344V406ZM799.057 402.124C811.771 400.822 822.538 398.716 831.196 395.689C839.787 392.684 846.865 388.577 851.515 382.894L840.68 374.028C838.299 376.939 833.902 379.911 826.575 382.473C819.315 385.012 809.722 386.959 797.631 388.197L799.057 402.124ZM851.564 382.834C856.2 377.039 859.086 368.365 860.904 357.907C862.757 347.252 863.645 333.848 863.645 317.816H849.645C849.645 333.425 848.774 345.949 847.111 355.509C845.414 365.266 843.027 371.094 840.632 374.088L851.564 382.834ZM863.645 317.816V53.2656H849.645V317.816H863.645ZM861.982 48.7368L853.779 39.0688L843.104 48.1265L851.307 57.7945L861.982 48.7368ZM853.777 39.067C844.861 28.5652 836.367 21.0104 828.341 18.0004L823.425 31.109C827.898 32.7865 834.444 37.927 843.105 48.1283L853.777 39.067ZM828.59 18.0993C821.33 15.0549 811.111 13.562 798.566 13.1637L798.122 27.1566C810.185 27.5396 818.326 28.9763 823.176 31.0101L828.59 18.0993ZM805.344 20.1602V9.02734H791.344V20.1602H805.344ZM798.344 16.0273H901.176V2.02734H798.344V16.0273ZM895.71 13.4009L1126.86 302.268L1137.79 293.521L906.641 4.65381L895.71 13.4009ZM1139.33 297.895V97.2109H1125.33V297.895H1139.33ZM1139.33 97.2109C1139.33 80.4161 1138.09 66.2261 1135.49 54.7905C1132.92 43.4522 1128.85 34.1539 1122.68 27.8573L1112.68 37.6583C1116.27 41.3226 1119.53 47.747 1121.84 57.8931C1124.12 67.9419 1125.33 80.998 1125.33 97.2109H1139.33ZM1122.63 27.8081C1118.21 23.3923 1111.75 20.3041 1104.13 18.0596C1096.4 15.7825 1086.82 14.187 1075.52 13.1874L1074.29 27.1329C1085.06 28.0865 1093.65 29.5671 1100.17 31.4892C1106.81 33.444 1110.7 35.678 1112.73 37.7076L1122.63 27.8081ZM1081.91 20.1602V9.02734H1067.91V20.1602H1081.91ZM1074.91 16.0273H1215.82V2.02734H1074.91V16.0273ZM1208.82 9.02734V20.1602H1222.82V9.02734H1208.82ZM1215.11 13.1967C1191.98 15.5688 1174.32 21.3218 1164.83 32.2749L1175.41 41.4439C1181.15 34.8188 1193.96 29.439 1216.54 27.1236L1215.11 13.1967ZM1164.83 32.2749C1159.81 38.0709 1156.66 46.7639 1154.67 57.237C1152.66 67.8881 1151.7 81.2568 1151.7 97.2109H1165.7C1165.7 81.7197 1166.64 69.3072 1168.43 59.8412C1170.26 50.1971 1172.82 44.4369 1175.41 41.4439L1164.83 32.2749ZM1151.7 97.2109V413.031H1165.7V97.2109H1151.7ZM1158.7 406.031H1148.44V420.031H1158.7V406.031ZM1153.89 408.636L888.46 79.632L877.564 88.4227L1142.99 417.427L1153.89 408.636ZM876.012 84.0273V317.816H890.012V84.0273H876.012ZM876.012 317.816C876.012 334.51 877.224 348.618 879.769 359.994C882.293 371.271 886.271 380.531 892.319 386.826L902.415 377.127C898.893 373.462 895.694 367.048 893.432 356.937C891.192 346.927 890.012 333.936 890.012 317.816H876.012ZM892.342 386.85C896.634 391.276 902.958 394.433 910.427 396.784C918.006 399.168 927.411 400.92 938.509 402.12L940.014 388.201C929.433 387.057 921.016 385.439 914.63 383.429C908.134 381.385 904.35 379.123 902.393 377.104L892.342 386.85ZM932.262 395.16V406H946.262V395.16H932.262ZM939.262 399H798.344V413H939.262V399ZM805.344 406V395.16H791.344V406H805.344ZM1355.57 379.047L1351.69 384.871L1351.74 384.908L1351.8 384.943L1355.57 379.047ZM1501.18 355.902L1504.83 361.871L1504.84 361.869L1501.18 355.902ZM1513.48 70.8438L1517.89 65.4076L1517.88 65.403L1513.48 70.8438ZM1355.57 35.3945L1351.97 29.3921L1351.91 29.4248L1351.86 29.4585L1355.57 35.3945ZM1234.87 395.16L1234.12 388.2L1227.87 388.87V395.16H1234.87ZM1277.64 383.441L1282.09 388.845L1282.14 388.806L1282.18 388.767L1277.64 383.441ZM1234.87 20.1602H1227.87V26.6861L1234.38 27.143L1234.87 20.1602ZM1234.87 9.02734V2.02734H1227.87V9.02734H1234.87ZM1534.87 35.9805L1531.86 42.2993L1531.86 42.3024L1531.87 42.3055L1534.87 35.9805ZM1618.36 294.086L1612 291.179L1611.99 291.198L1611.98 291.217L1618.36 294.086ZM1563.29 362.348L1567.49 367.948L1567.49 367.942L1567.5 367.937L1563.29 362.348ZM1514.65 389.008L1512.28 382.423L1512.25 382.432L1512.23 382.442L1514.65 389.008ZM1234.87 406H1227.87V413H1234.87V406ZM1341.54 359.711C1341.54 370.111 1343.97 379.725 1351.69 384.871L1359.45 373.223C1357.8 372.119 1355.54 368.842 1355.54 359.711H1341.54ZM1351.8 384.943C1355.45 387.279 1360.29 388.641 1365.62 389.478C1371.09 390.336 1377.73 390.734 1385.45 390.734V376.734C1378.14 376.734 1372.28 376.352 1367.79 375.647C1363.16 374.921 1360.58 373.94 1359.34 373.151L1351.8 384.943ZM1385.45 390.734C1433.22 390.734 1473.16 381.283 1504.83 361.871L1497.52 349.934C1468.64 367.631 1431.44 376.734 1385.45 376.734V390.734ZM1504.84 361.869C1553.96 331.737 1577.9 280.353 1577.9 209.711H1563.9C1563.9 276.96 1541.37 323.036 1497.52 349.936L1504.84 361.869ZM1577.9 209.711C1577.9 146.651 1558.21 98.1145 1517.89 65.4076L1509.07 76.2799C1545.31 105.682 1563.9 149.724 1563.9 209.711H1577.9ZM1517.88 65.403C1483.51 37.5766 1438.36 24 1383.11 24V38C1436.07 38 1477.82 50.9859 1509.08 76.2845L1517.88 65.403ZM1383.11 24C1376.15 24 1370.09 24.3759 1365.01 25.1861C1360.03 25.9816 1355.51 27.2672 1351.97 29.3921L1359.17 41.397C1360.51 40.5922 1363.03 39.6805 1367.22 39.0112C1371.32 38.3565 1376.59 38 1383.11 38V24ZM1351.86 29.4585C1343.91 34.4275 1341.54 44.2657 1341.54 54.7305H1355.54C1355.54 45.2733 1357.86 42.2209 1359.28 41.3305L1351.86 29.4585ZM1341.54 54.7305V359.711H1355.54V54.7305H1341.54ZM1235.61 402.12C1246.76 400.926 1256.2 399.311 1263.82 397.224C1271.31 395.171 1277.65 392.504 1282.09 388.845L1273.19 378.038C1270.99 379.847 1266.88 381.868 1260.12 383.721C1253.48 385.54 1244.85 387.051 1234.12 388.2L1235.61 402.12ZM1282.18 388.767C1287.17 384.51 1290.13 377.825 1291.93 370.171C1293.76 362.362 1294.6 352.564 1294.6 340.961H1280.6C1280.6 352.014 1279.79 360.624 1278.3 366.975C1276.77 373.482 1274.75 376.708 1273.1 378.116L1282.18 388.767ZM1294.6 340.961V74.0664H1280.6V340.961H1294.6ZM1294.6 74.0664C1294.6 62.843 1293.78 53.2844 1292.01 45.5497C1290.26 37.9284 1287.42 31.3316 1282.81 26.8536L1273.06 36.9042C1274.89 38.6763 1276.89 42.2357 1278.36 48.6769C1279.81 55.0046 1280.6 63.4148 1280.6 74.0664H1294.6ZM1282.81 26.8536C1278.35 22.5311 1271.83 19.5903 1264.17 17.5073C1256.39 15.3907 1246.74 13.9764 1235.36 13.1773L1234.38 27.143C1245.26 27.9064 1253.92 29.2264 1260.5 31.0161C1267.2 32.8394 1271.07 34.9767 1273.06 36.9042L1282.81 26.8536ZM1241.87 20.1602V9.02734H1227.87V20.1602H1241.87ZM1234.87 16.0273H1396.59V2.02734H1234.87V16.0273ZM1396.59 16.0273C1450.34 16.0273 1495.34 24.894 1531.86 42.2993L1537.88 29.6617C1499 11.1295 1451.82 2.02734 1396.59 2.02734V16.0273ZM1531.87 42.3055C1564.75 57.8968 1589.11 79.4627 1605.3 106.92C1621.52 134.419 1629.82 168.28 1629.82 208.832H1643.82C1643.82 166.376 1635.13 129.924 1617.36 99.807C1599.57 69.6467 1572.95 46.2907 1537.87 29.6554L1531.87 42.3055ZM1629.82 208.832C1629.82 237.721 1623.88 265.146 1612 291.179L1624.73 296.993C1637.46 269.119 1643.82 239.709 1643.82 208.832H1629.82ZM1611.98 291.217C1600.37 317.048 1582.78 338.882 1559.07 356.758L1567.5 367.937C1593.01 348.704 1612.13 325.03 1624.75 296.955L1611.98 291.217ZM1559.09 356.748C1543.96 368.088 1528.36 376.625 1512.28 382.423L1517.03 395.593C1534.54 389.281 1551.36 380.045 1567.49 367.948L1559.09 356.748ZM1512.23 382.442C1482.57 393.399 1445.75 399 1401.57 399V413C1446.84 413 1485.41 407.273 1517.08 395.574L1512.23 382.442ZM1401.57 399H1234.87V413H1401.57V399ZM1241.87 406V395.16H1227.87V406H1241.87ZM1668.46 395.16L1667.96 388.178L1661.46 388.646V395.16H1668.46ZM1715.92 384.32L1720.15 389.902L1720.19 389.866L1720.24 389.83L1715.92 384.32ZM1715.92 31.5859L1711.26 36.81L1711.3 36.8456L1711.34 36.8805L1715.92 31.5859ZM1668.46 20.1602H1661.46V26.8322L1668.13 27.1521L1668.46 20.1602ZM1668.46 9.02734V2.02734H1661.46V9.02734H1668.46ZM1846 9.02734H1853V2.02734H1846V9.02734ZM1846 20.1602L1846.34 27.1521L1853 26.8322V20.1602H1846ZM1798.54 31.5859L1803.12 36.8805L1803.16 36.8456L1803.2 36.81L1798.54 31.5859ZM1798.54 384.32L1794.22 389.83L1794.27 389.866L1794.31 389.902L1798.54 384.32ZM1846 395.16H1853V388.646L1846.5 388.178L1846 395.16ZM1846 406V413H1853V406H1846ZM1668.46 406H1661.46V413H1668.46V406ZM1668.96 402.142C1681.37 401.249 1691.81 399.871 1700.2 397.956C1708.43 396.076 1715.35 393.535 1720.15 389.902L1711.7 378.738C1709.27 380.574 1704.67 382.574 1697.08 384.308C1689.64 386.006 1679.97 387.313 1667.96 388.178L1668.96 402.142ZM1720.24 389.83C1725.63 385.602 1728.88 378.798 1730.84 370.93C1732.84 362.93 1733.76 352.874 1733.76 340.961H1719.76C1719.76 352.291 1718.87 361.082 1717.26 367.535C1715.61 374.12 1713.44 377.375 1711.6 378.811L1720.24 389.83ZM1733.76 340.961V74.0664H1719.76V340.961H1733.76ZM1733.76 74.0664C1733.76 62.7119 1732.84 53.0174 1730.83 45.1628C1728.85 37.3836 1725.63 30.7269 1720.5 26.2914L1711.34 36.8805C1713.44 38.695 1715.64 42.2433 1717.27 48.6243C1718.88 54.9299 1719.76 63.3506 1719.76 74.0664H1733.76ZM1720.58 26.3619C1715.71 22.0153 1708.64 19.1029 1700.28 17.0899C1691.78 15.0453 1681.25 13.7659 1668.8 13.1682L1668.13 27.1521C1680.09 27.7263 1689.67 28.9371 1697 30.7011C1704.46 32.4967 1708.91 34.7113 1711.26 36.81L1720.58 26.3619ZM1675.46 20.1602V9.02734H1661.46V20.1602H1675.46ZM1668.46 16.0273H1846V2.02734H1668.46V16.0273ZM1839 9.02734V20.1602H1853V9.02734H1839ZM1845.66 13.1682C1833.21 13.7659 1822.68 15.0453 1814.19 17.0899C1805.82 19.1029 1798.75 22.0153 1793.88 26.3619L1803.2 36.81C1805.55 34.7113 1810 32.4967 1817.46 30.7011C1824.79 28.9371 1834.37 27.7263 1846.34 27.1521L1845.66 13.1682ZM1793.96 26.2914C1788.83 30.7269 1785.61 37.3836 1783.63 45.1628C1781.62 53.0174 1780.7 62.7119 1780.7 74.0664H1794.7C1794.7 63.3506 1795.58 54.9299 1797.19 48.6243C1798.82 42.2433 1801.02 38.695 1803.12 36.8805L1793.96 26.2914ZM1780.7 74.0664V340.961H1794.7V74.0664H1780.7ZM1780.7 340.961C1780.7 352.874 1781.62 362.93 1783.62 370.93C1785.59 378.798 1788.83 385.602 1794.22 389.83L1802.86 378.811C1801.02 377.375 1798.85 374.12 1797.2 367.535C1795.59 361.082 1794.7 352.291 1794.7 340.961H1780.7ZM1794.31 389.902C1799.12 393.535 1806.03 396.076 1814.27 397.956C1822.65 399.871 1833.09 401.249 1845.5 402.142L1846.5 388.178C1834.49 387.313 1824.82 386.006 1817.38 384.308C1809.79 382.574 1805.19 380.574 1802.76 378.738L1794.31 389.902ZM1839 395.16V406H1853V395.16H1839ZM1846 399H1668.46V413H1846V399ZM1675.46 406V395.16H1661.46V406H1675.46ZM2206.06 16.3516L2201.39 11.1349L2201.32 11.1977L2201.25 11.2625L2206.06 16.3516ZM2215.43 1.99609V-5.00391H2210.72L2208.95 -0.63855L2215.43 1.99609ZM2228.62 1.99609L2235.61 1.7364L2235.36 -5.00391H2228.62V1.99609ZM2233.3 128.266V135.266H2240.57L2240.3 128.006L2233.3 128.266ZM2219.54 128.266L2213.09 130.992L2214.89 135.266H2219.54V128.266ZM2181.45 63.2266L2186.61 58.4933L2186.57 58.4553L2186.54 58.4179L2181.45 63.2266ZM2148.64 381.391L2146.45 374.741L2146.44 374.745L2146.42 374.75L2148.64 381.391ZM2175.3 369.379L2180.1 374.468L2180.18 374.399L2180.25 374.329L2175.3 369.379ZM2170.61 215.277L2165.99 220.535L2166.03 220.57L2166.07 220.603L2170.61 215.277ZM2127.84 204.73H2120.84V211.31L2127.4 211.717L2127.84 204.73ZM2127.84 193.598V186.598H2120.84V193.598H2127.84ZM2280.77 193.598H2287.77V186.598H2280.77V193.598ZM2280.77 204.73L2281.23 211.715L2287.77 211.285V204.73H2280.77ZM2251.18 212.055L2255.42 217.623L2255.48 217.573L2255.55 217.521L2251.18 212.055ZM2187.02 396.918L2184.77 390.289L2184.76 390.292L2187.02 396.918ZM1939.46 363.227L1934.92 368.56L1934.93 368.561L1939.46 363.227ZM1925.98 67.9141L1931.22 72.5598L1931.22 72.5516L1925.98 67.9141ZM2080.67 8.99609C2103.25 8.99609 2125.46 12.1264 2147.29 18.3925L2151.15 4.93561C2128.07 -1.68886 2104.57 -5.00391 2080.67 -5.00391V8.99609ZM2147.29 18.3925C2158.55 21.6235 2167.48 24.0659 2174.04 25.706C2177.31 26.5249 2180.06 27.1593 2182.25 27.5934C2184.25 27.9925 2186.3 28.332 2187.89 28.332V14.332C2187.96 14.332 2187.77 14.3326 2187.18 14.2496C2186.64 14.1731 2185.91 14.0479 2184.97 13.8621C2183.11 13.4906 2180.6 12.9165 2177.43 12.124C2171.1 10.5415 2162.35 8.14996 2151.15 4.93561L2147.29 18.3925ZM2187.89 28.332C2197.01 28.332 2205.36 26.6444 2210.86 21.4407L2201.25 11.2625C2199.73 12.6994 2195.97 14.332 2187.89 14.332V28.332ZM2210.73 21.5683C2215.46 17.331 2219.11 11.5359 2221.92 4.63074L2208.95 -0.63855C2206.68 4.95625 2204.08 8.73148 2201.39 11.1349L2210.73 21.5683ZM2215.43 8.99609H2228.62V-5.00391H2215.43V8.99609ZM2221.62 2.25578L2226.31 128.525L2240.3 128.006L2235.61 1.7364L2221.62 2.25578ZM2233.3 121.266H2219.54V135.266H2233.3V121.266ZM2225.98 125.54C2213.54 96.1058 2200.47 73.5964 2186.61 58.4933L2176.29 67.9598C2188.6 81.3723 2200.92 102.222 2213.09 130.992L2225.98 125.54ZM2186.54 58.4179C2161.44 31.8694 2128.76 18.7266 2089.16 18.7266V32.7266C2125.35 32.7266 2154.19 44.5838 2176.36 68.0353L2186.54 58.4179ZM2089.16 18.7266C2048.68 18.7266 2013.05 34.2239 1982.55 64.7221L1992.45 74.6216C2020.55 46.5261 2052.7 32.7266 2089.16 32.7266V18.7266ZM1982.55 64.7221C1951.52 95.7561 1936.85 146.077 1936.85 213.812H1950.85C1950.85 147.563 1965.28 101.791 1992.45 74.6216L1982.55 64.7221ZM1936.85 213.812C1936.85 270.315 1951.75 315.388 1982.4 348.091L1992.61 338.518C1965.06 309.112 1950.85 267.856 1950.85 213.812H1936.85ZM1982.4 348.091C2012.83 380.566 2050.62 396.887 2095.32 396.887V382.887C2054.47 382.887 2020.38 368.153 1992.61 338.518L1982.4 348.091ZM2095.32 396.887C2102.96 396.887 2111.8 396.166 2121.78 394.768L2119.83 380.904C2110.28 382.241 2102.13 382.887 2095.32 382.887V396.887ZM2121.78 394.768C2131.94 393.346 2141.63 391.104 2150.85 388.031L2146.42 374.75C2138.06 377.536 2129.2 379.592 2119.83 380.904L2121.78 394.768ZM2150.82 388.04C2158.08 385.656 2164.12 383.396 2168.87 381.254C2173.45 379.189 2177.45 376.97 2180.1 374.468L2170.49 364.29C2169.62 365.108 2167.42 366.551 2163.12 368.49C2158.99 370.352 2153.46 372.438 2146.45 374.741L2150.82 388.04ZM2180.25 374.329C2185.47 369.106 2187.57 361.998 2187.57 354.145H2173.57C2173.57 359.572 2172.16 362.62 2170.35 364.429L2180.25 374.329ZM2187.57 354.145V258.344H2173.57V354.145H2187.57ZM2187.57 258.344C2187.57 246.551 2186.73 236.614 2184.9 228.715C2183.11 220.984 2180.16 214.225 2175.15 209.952L2166.07 220.603C2167.7 221.994 2169.73 225.244 2171.26 231.869C2172.75 238.325 2173.57 247.089 2173.57 258.344H2187.57ZM2175.23 210.019C2170.76 206.093 2164.3 203.457 2156.76 201.596C2149.07 199.701 2139.54 198.442 2128.27 197.744L2127.4 211.717C2138.21 212.386 2146.83 213.568 2153.41 215.189C2160.12 216.844 2164.01 218.798 2165.99 220.535L2175.23 210.019ZM2134.84 204.73V193.598H2120.84V204.73H2134.84ZM2127.84 200.598H2280.77V186.598H2127.84V200.598ZM2273.77 193.598V204.73H2287.77V193.598H2273.77ZM2280.31 197.746C2272.64 198.25 2266.02 199.145 2260.55 200.499C2255.18 201.829 2250.38 203.729 2246.8 206.589L2255.55 217.521C2256.86 216.474 2259.43 215.2 2263.92 214.089C2268.31 213.002 2274.04 212.188 2281.23 211.715L2280.31 197.746ZM2246.93 206.487C2235.93 214.869 2231.87 230.828 2231.87 250.727H2245.87C2245.87 231.563 2250.01 221.741 2255.42 217.623L2246.93 206.487ZM2231.87 250.727V368.793H2245.87V250.727H2231.87ZM2231.87 368.793C2231.87 367.656 2232.49 367.831 2230.81 369.429C2229.29 370.874 2226.65 372.73 2222.57 374.944C2214.46 379.346 2201.94 384.468 2184.77 390.289L2189.26 403.547C2206.66 397.649 2220.07 392.225 2229.24 387.251C2233.8 384.778 2237.65 382.24 2240.45 379.583C2243.09 377.079 2245.87 373.445 2245.87 368.793H2231.87ZM2184.76 390.292C2151.01 401.798 2118.67 407.496 2087.7 407.496V421.496C2120.4 421.496 2154.27 415.476 2189.27 403.544L2184.76 390.292ZM2087.7 407.496C2030.57 407.496 1982.82 390.876 1943.99 357.892L1934.93 368.561C1976.57 403.936 2027.64 421.496 2087.7 421.496V407.496ZM1943.99 357.894C1901.37 321.659 1879.95 273.103 1879.95 211.469H1865.95C1865.95 276.788 1888.87 329.403 1934.92 368.56L1943.99 357.894ZM1879.95 211.469C1879.95 157.23 1897.06 111.056 1931.22 72.5598L1920.74 63.2683C1884.2 104.459 1865.95 153.988 1865.95 211.469H1879.95ZM1931.22 72.5516C1968.63 30.2621 2018.2 8.99609 2080.67 8.99609V-5.00391C2014.62 -5.00391 1961.07 17.6754 1920.74 63.2766L1931.22 72.5516ZM2415.24 347.699L2409.82 352.136L2409.83 352.144L2409.84 352.153L2415.24 347.699ZM2597.17 348.871L2591.85 344.324L2591.85 344.327L2597.17 348.871ZM2415.24 67.6211L2409.84 63.1638L2409.84 63.1674L2415.24 67.6211ZM2370.41 53.5586L2365.57 48.503L2365.56 48.5118L2370.41 53.5586ZM2643.17 53.8516L2638.31 58.8938L2638.32 58.8988L2643.17 53.8516ZM2641.12 362.934L2645.87 368.069L2645.88 368.061L2641.12 362.934ZM2366.61 357.367L2361.58 362.241L2361.59 362.246L2361.59 362.252L2366.61 357.367ZM2371.03 207.66C2371.03 271.44 2383.53 320.046 2409.82 352.136L2420.65 343.263C2397.34 314.805 2385.03 270.052 2385.03 207.66H2371.03ZM2409.84 352.153C2435.85 383.698 2468.24 399.816 2506.64 399.816V385.816C2472.78 385.816 2444.23 371.857 2420.64 343.246L2409.84 352.153ZM2506.64 399.816C2544.24 399.816 2576.3 384.113 2602.5 353.415L2591.85 344.327C2568.04 372.223 2539.75 385.816 2506.64 385.816V399.816ZM2602.49 353.418C2629.29 322.05 2641.96 272.948 2641.96 207.66H2627.96C2627.96 271.669 2615.44 316.708 2591.85 344.324L2602.49 353.418ZM2641.96 207.66C2641.96 141.62 2629.21 92.2672 2602.15 61.2613L2591.6 70.4653C2615.33 97.6625 2627.96 142.841 2627.96 207.66H2641.96ZM2602.15 61.2613C2575.6 30.8254 2543.67 15.2109 2506.64 15.2109V29.2109C2539.15 29.2109 2567.38 42.698 2591.6 70.4653L2602.15 61.2613ZM2506.64 15.2109C2468.41 15.2109 2436.03 31.4494 2409.84 63.1638L2420.64 72.0784C2444.45 43.2459 2473.01 29.2109 2506.64 29.2109V15.2109ZM2409.84 63.1674C2383.53 95.0727 2371.03 143.697 2371.03 207.66H2385.03C2385.03 145.061 2397.34 100.326 2420.64 72.0747L2409.84 63.1674ZM2317.06 207.66C2317.06 145.195 2336.61 95.7584 2375.26 58.6054L2365.56 48.5118C2323.75 88.7025 2303.06 142.001 2303.06 207.66H2317.06ZM2375.26 58.6142C2410.79 24.5838 2454.43 7.53125 2506.64 7.53125V-6.46875C2451.04 -6.46875 2403.87 11.8302 2365.57 48.503L2375.26 58.6142ZM2506.64 7.53125C2559.05 7.53125 2602.78 24.6782 2638.31 58.8938L2648.02 48.8093C2609.73 11.9312 2562.45 -6.46875 2506.64 -6.46875V7.53125ZM2638.32 58.8988C2676.77 95.8496 2696.23 145.183 2696.23 207.66H2710.23C2710.23 142.012 2689.65 88.8066 2648.02 48.8043L2638.32 58.8988ZM2696.23 207.66C2696.23 271.075 2676.11 320.858 2636.35 357.806L2645.88 368.061C2688.93 328.056 2710.23 274.323 2710.23 207.66H2696.23ZM2636.36 357.798C2600.6 390.924 2557.49 407.496 2506.64 407.496V421.496C2560.87 421.496 2607.42 403.693 2645.87 368.069L2636.36 357.798ZM2506.64 407.496C2452.16 407.496 2407.33 389.131 2371.62 352.482L2361.59 362.252C2400.1 401.775 2448.63 421.496 2506.64 421.496V407.496ZM2371.63 352.494C2335.36 315.1 2317.06 267.026 2317.06 207.66H2303.06C2303.06 270.169 2322.46 321.9 2361.58 362.241L2371.63 352.494Z" fill="black"/>
</svg>
